{"title":"Black Panther 2018 BRRip 480p x264 Dual Audio [Eng-Hindi] YsB Te","magnet":"magnet:?xt=urn:btih:5282af2c6196e766b0b4a4230564d8f43e20d087&dn=Black+Panther+2018+BRRip+480p+x264+Dual+Audio+%5BEng-Hindi%5D+YsB+Te&tr=udp%3A%2F%2Ftracker.leechers-paradise.org%3A6969&tr=udp%3A%2F%2Fzer0day.ch%3A1337&tr=udp%3A%2F%2Fopen.demonii.com%3A1337&tr=udp%3A%2F%2Ftracker.coppersurfer.tk%3A6969&tr=udp%3A%2F%2Fexodus.desync.com%3A6969","uploader":"Dj_YsB","categoryP":"video","categoryS":"movies","size":"588484634","seeders":"41","leechers":"18","description":"Black Panther 2018 BRRip 480p x264 Dual Audio [Eng-Hindi] YsB TeaM Fl &amp; SSX&quot;\r\n\r\n\r\nInfo:\r\nGeneral\r\nComplete name               : Black Panther 2018 BRRip 480p x264 Dual Audio [Eng-Hindi] YsB TeaM Fl &amp; SSX.mkv\r\nFormat                      : Matroska\r\nFormat version              : Version 4 / Version 2\r\nFile size                   : 558 MiB\r\nDuration                    : 2 h 14 min\r\nOverall bit rate            : 580 kb/s\r\n\r\nVideo\r\nID                          : 1\r\nFormat                      : AVC\r\nFormat/Info                 : Advanced Video Codec\r\nFormat profile              : High@L4.1\r\nCodec ID                    : V_MPEG4/ISO/AVC\r\nDuration                    : 2 h 14 min\r\nBit rate                    : 450 kb/s\r\nWidth                       : 848 pixels\r\nHeight                      : 352 pixels\r\nDisplay aspect ratio        : 2.40:1\r\nFrame rate mode             : Constant\r\nFrame rate                  : 23.976 (24000/1001) FPS\r\nColor space                 : YUV\r\nBit depth                   : 8 bits\r\nStream size                 : 433 MiB (78%)\r\nTitle                       : YsB TeaM FL\r\n\r\nAudio #1\r\nID                          : 2\r\nFormat                      : AC-3\r\nFormat/Info                 : Audio Coding 3\r\nCodec ID                    : A_AC3\r\nDuration                    : 2 h 14 min\r\nBit rate mode               : Constant\r\nBit rate                    : 64.0 kb/s\r\nChannel(s)                  : 2 channels\r\nChannel positions           : Front: L R\r\nSampling rate               : 48.0 kHz\r\nBit depth                   : 16 bits\r\nCompression mode            : Lossy\r\nStream size                 : 61.6 MiB (11%)\r\nTitle                       : YsB TeaM FL\r\nLanguage                    : Hindi\r\n\r\nAudio #2\r\nID                          : 3\r\nFormat                      : AC-3\r\nFormat/Info                 : Audio Coding 3\r\nCodec ID                    : A_AC3\r\nDuration                    : 2 h 14 min\r\nBit rate mode               : Constant\r\nBit rate                    : 64.0 kb/s\r\nChannel(s)                  : 2 channels\r\nChannel positions           : Front: L R\r\nSampling rate               : 48.0 kHz\r\nBit depth                   : 16 bits\r\nCompression mode            : Lossy\r\nStream size                 : 61.6 MiB (11%)\r\nTitle                       : YsB TeaM FL\r\nLanguage                    : English\r\n\r\nText\r\nID                          : 4\r\nFormat                      : UTF-8\r\nCodec ID                    : S_TEXT/UTF8\r\nCodec ID/Info               : UTF-8 Plain Text\r\nDuration                    : 2 h 10 min\r\nBit rate                    : 1 b/s\r\nCount of elements           : 68\r\nStream size                 : 1.15 KiB (0%)\r\nTitle                       : YsB TeaM FL\r\nLanguage                    : English\r\n\r\n\r\nScreenshot: <a href=\"\nhttps://i.imgur.com/CiQTNJx.jpg\" rel=\"nofollow\" target=\"_NEW\">\nhttps://i.imgur.com/CiQTNJx.jpg</a> <a href=\"\nhttps://i.imgur.com/p0hIe4E.jpg\" rel=\"nofollow\" target=\"_NEW\">\nhttps://i.imgur.com/p0hIe4E.jpg</a> <a href=\"\nhttps://i.imgur.com/nLLbdxN.jpg\" rel=\"nofollow\" target=\"_NEW\">\nhttps://i.imgur.com/nLLbdxN.jpg</a>\r\n\r\nThanks.\r\nTeaM FL , TeaM SSX, AnantaRdp\r\n\r\nEncoded and Seeding Through AnantaRdp Rdp","last_updated":"2018-06-03T12:04:28.294Z","parsed":{"xt":"urn:btih:5282af2c6196e766b0b4a4230564d8f43e20d087","dn":"Black Panther 2018 BRRip 480p x264 Dual Audio [Eng-Hindi] YsB Te","tr":["udp://exodus.desync.com:6969","udp://open.demonii.com:1337","udp://tracker.coppersurfer.tk:6969","udp://tracker.leechers-paradise.org:6969","udp://zer0day.ch:1337"],"infoHash":"5282af2c6196e766b0b4a4230564d8f43e20d087","infoHashBuffer":{"type":"Buffer","data":[82,130,175,44,97,150,231,102,176,180,164,35,5,100,216,244,62,32,208,135]},"name":"Black Panther 2018 BRRip 480p x264 Dual Audio [Eng-Hindi] YsB Te","announce":["udp://exodus.desync.com:6969","udp://open.demonii.com:1337","udp://tracker.coppersurfer.tk:6969","udp://tracker.leechers-paradise.org:6969","udp://zer0day.ch:1337"],"urlList":[]}}